<?xml version="1.0" encoding="utf-8"?>
<!-- Generator: Adobe Illustrator 19.0.0, SVG Export Plug-In . SVG Version: 6.00 Build 0)  -->
<svg version="1.1" id="Layer_1" xmlns="http://www.w3.org/2000/svg" xmlns:xlink="http://www.w3.org/1999/xlink" x="0px" y="0px"
	 viewBox="0 0 1976.8 667.4" style="enable-background:new 0 0 1976.8 667.4;" xml:space="preserve">
<style type="text/css">
	.st0{fill-rule:evenodd;clip-rule:evenodd;fill:#FFFFFF;}
	.st1{fill-rule:evenodd;clip-rule:evenodd;fill:#F3722C;}
</style>
<g>
	<path class="st0" d="M151.4,1.2C71.4,1.2,0,67.4,0,148.7c0,81.2,71.4,147.5,151.4,147.5c80,0,151.4-66.3,151.4-147.5
		C302.8,67.4,231.4,1.2,151.4,1.2L151.4,1.2z M151.4,61.6c-47.2,0-85.7,39.1-85.7,87.1c0,48,38.5,87.1,85.7,87.1
		c47.2,0,85.7-39.1,85.7-87.1C237.1,100.7,198.6,61.6,151.4,61.6L151.4,61.6z M691.3,1.5c80,0,151.4,66.3,151.4,147.5
		c0,81.2-71.4,147.5-151.4,147.5c-80,0-151.4-66.3-151.4-147.5C539.9,67.7,611.3,1.5,691.3,1.5L691.3,1.5z M691.3,61.9
		c47.2,0,85.7,39.1,85.7,87.1c0,48-38.5,87.1-85.7,87.1c-47.2,0-85.7-39.1-85.7-87.1C605.6,101,644.1,61.9,691.3,61.9L691.3,61.9z
		 M1123.2,7.6v274.5h-48.1L909.8,96.4l0.1,185.3l-54.6,0.1V7.3l49.1,0l164.2,182.4l-0.1-182.1H1123.2L1123.2,7.6z M552.9,279.1H271
		L445.6,62.3L283,62.4l-0.1-55.5H568L393.5,223.7l159.4-0.1V279.1L552.9,279.1z M1288,1.5c80,0,151.4,66.2,151.4,147.5
		c0,9.6-1.2,18.6-3.1,27.7l-229.5,0.1c11.4,34.4,43.6,59.3,81.3,59.3c28.6,0,54-14.4,69.6-36.4h72.1
		c-22.1,56.4-79.3,96.7-141.7,96.7c-80,0-151.4-66.3-151.4-147.5C1136.6,67.7,1208,1.5,1288,1.5L1288,1.5z M1206.7,121.2h162.5
		c-11.4-34.4-43.6-59.3-81.3-59.3C1250.3,61.8,1218.2,86.8,1206.7,121.2L1206.7,121.2z"/>
	<path class="st1" d="M1491.9,228.3c18.1,0,32.8,14.7,32.8,32.8c0,18.1-14.7,32.8-32.8,32.8c-18.1,0-32.8-14.7-32.8-32.8
		C1459.1,243.1,1473.9,228.3,1491.9,228.3L1491.9,228.3z"/>
	<path class="st1" d="M1868.1,85.7c57.4,0,108.8,46.9,108.8,104.3c0,3-0.2,6-0.4,9l0.1,105.9h0.3c0,0.7,0,1.5,0,2.2
		c0,57.5-51.3,104.3-108.8,104.3c-57.5,0-108.8-46.9-108.8-104.3c0-0.7,0-1.5,0-2.2h47.2c0,0.7,0,1.5,0,2.2
		c0,33.9,27.7,61.6,61.6,61.6c33.9,0,61.6-27.7,61.6-61.6c0-0.7,0-1.5-0.1-2.2h0.3V275c-17.9,12.2-39.4,19.4-61.9,19.4
		c-57.5,0-108.8-46.9-108.8-104.3C1759.3,132.6,1810.6,85.7,1868.1,85.7L1868.1,85.7z M1868.1,128.5c33.9,0,61.6,27.7,61.6,61.6
		c0,33.9-27.7,61.6-61.6,61.6c-33.9,0-61.6-27.7-61.6-61.6C1806.5,156.1,1834.1,128.5,1868.1,128.5L1868.1,128.5z"/>
	<path class="st1" d="M1638.1,85.5c-22.6,0-44.3,7.3-62.3,19.6l0-105.1l-46.5,0v188.3h0c0,0.5,0,1,0,1.5
		c0,57.5,51.3,104.3,108.8,104.3c57.5,0,108.8-46.9,108.8-104.3C1746.9,132.4,1695.6,85.5,1638.1,85.5L1638.1,85.5z M1638.1,128.3
		c-33.9,0-61.6,27.7-61.6,61.6c0,33.9,27.7,61.6,61.6,61.6c33.9,0,61.6-27.7,61.6-61.6C1699.7,155.9,1672.1,128.3,1638.1,128.3
		L1638.1,128.3z"/>
	<path class="st0" d="M1217.3,613.3c0,17-11.1,28.1-31.8,28.1h-12.2v20.7c0,2.7-1.1,3.2-3.2,3.2h-12.2c-2.1,0-3.7-0.5-3.7-3.2v-73.2
		c0-2.1,1.1-3.7,3.7-3.7h27.6C1206.2,585.2,1217.3,596.8,1217.3,613.3L1217.3,613.3z M1198.8,613.8c0-6.4-4.2-11.1-13.3-11.1h-12.2
		V625h12.2C1194.5,625,1198.8,620.2,1198.8,613.8L1198.8,613.8z"/>
	<path class="st0" d="M1863.5,588.9v10.1c0,2.1-0.5,3.7-3.2,3.7h-18.6v59.4c0,2.7-1.6,3.2-3.7,3.2h-12.2c-2.1,0-3.2-0.5-3.2-3.2
		v-59.4h-19.1c-2.7,0-3.2-1.6-3.2-3.7v-10.1c0-2.1,0.5-3.7,3.2-3.7h56.8C1863,585.2,1863.5,586.7,1863.5,588.9L1863.5,588.9z"/>
	<path class="st0" d="M1658.7,588.9l-35.5,73.2c-1.6,3.2-2.7,3.2-5.3,3.2h-13.3c-2.1,0-2.7-2.1-1.6-3.7l9-18.6l-27.1-54.1
		c-0.5-1.6,0-3.7,2.1-3.7h14.3c2.6,0,3.7,0.5,4.8,3.2l8.5,17.5l7.4,16.4l7.4-16.4l8.5-17c1.1-2.7,1.6-3.7,4.8-3.7h13.8
		C1658.7,585.2,1659.3,587.3,1658.7,588.9L1658.7,588.9z"/>
	<path class="st0" d="M878.6,585.2c2.1,0,3.7,1.1,3.7,3.7v41.9l26-41.4c1.6-2.7,2.1-4.2,5.3-4.2h11.1c3.2,0,3.7,1.6,3.7,3.7v73.2
		c0,2.7-1.1,3.2-3.7,3.2h-11.7c-2.1,0-3.7-0.5-3.7-3.2v-42.5l-26,41.4c-1.6,2.7-2.1,4.3-5.3,4.3h-11.1c-2.7,0-3.2-1.1-3.2-3.2v-73.2
		c0-2.7,1.1-3.7,3.2-3.7H878.6L878.6,585.2z"/>
	<path class="st0" d="M1025,585.2c2.1,0,3.7,1.1,3.7,3.7v41.9l26-41.4c1.6-2.7,2.1-4.2,5.3-4.2h11.1c3.2,0,3.7,1.6,3.7,3.7v73.2
		c0,2.7-1.1,3.2-3.7,3.2h-11.7c-2.1,0-3.7-0.5-3.7-3.2v-42.5l-26,41.4c-1.6,2.7-2.1,4.3-5.3,4.3h-11.1c-2.7,0-3.2-1.1-3.2-3.2v-73.2
		c0-2.7,1.1-3.7,3.2-3.7H1025L1025,585.2z"/>
	<path class="st0" d="M1285.6,665.3h-13.3c-2.7,0-3.2-0.5-4.2-3.7l-3.7-9.5h-29.7l-3.2,9.5c-1.1,3.2-2.1,3.7-4.8,3.7H1214
		c-2.7,0-2.7-2.1-2.1-3.2l27.1-73.2c1.1-2.7,2.1-3.7,4.8-3.7h11.7c2.7,0,4.2,1.1,5.3,3.7l26.5,73.2
		C1288.2,663.2,1288.2,665.3,1285.6,665.3L1285.6,665.3z M1259.1,635l-9.6-27.1l-9,27.1H1259.1L1259.1,635z"/>
	<path class="st0" d="M1809.2,665.3h-13.3c-2.7,0-3.2-0.5-4.2-3.7l-3.7-9.5h-29.7l-3.2,9.5c-1.1,3.2-2.1,3.7-4.8,3.7h-12.7
		c-2.7,0-2.7-2.1-2.1-3.2l27.1-73.2c1.1-2.7,2.1-3.7,4.8-3.7h11.7c2.6,0,4.2,1.1,5.3,3.7l26.5,73.2
		C1811.8,663.2,1811.8,665.3,1809.2,665.3L1809.2,665.3z M1782.6,635l-9.5-27.1l-9,27.1H1782.6L1782.6,635z"/>
	<path class="st0" d="M1926.1,665.3h-13.3c-2.7,0-3.2-0.5-4.3-3.7l-3.7-9.5h-29.7l-3.2,9.5c-1.1,3.2-2.1,3.7-4.8,3.7h-12.7
		c-2.7,0-2.7-2.1-2.1-3.2l27.1-73.2c1.1-2.7,2.1-3.7,4.8-3.7h11.7c2.7,0,4.3,1.1,5.3,3.7l26.5,73.2
		C1928.8,663.2,1928.8,665.3,1926.1,665.3L1926.1,665.3z M1899.6,635l-9.6-27.1l-9,27.1H1899.6L1899.6,635z"/>
	<path class="st0" d="M1470.2,667.4c-14.9,0-32.9-8.5-32.9-27.6v-28.7c0-19.1,18-27.6,32.9-27.6c14.9,0,29.7,7.4,31.3,22.8
		c0,3.2-1.1,3.7-3.7,3.7h-11.7c-2.7,0-2.7-2.1-3.7-3.7c-2.6-4.2-5.8-5.8-12.2-5.8c-8.5,0-13.8,4.2-13.8,12.2v25.5
		c0,7.4,5.3,11.7,13.8,11.7c6.4,0,11.7-2.1,12.7-8c0-2.7,0.5-4.3,3.2-4.3h11.7c2.7,0,3.7,1.1,3.7,3.7
		C1501.5,657.3,1485.1,667.4,1470.2,667.4L1470.2,667.4z"/>
	<path class="st0" d="M1109.5,601.6v60.5c0,2.7-1.6,3.2-3.7,3.2h-11.7c-2.6,0-3.7-0.5-3.7-3.2v-73.2c0-3.2,1.1-3.7,3.7-3.7h45.1
		c2.7,0,3.7,1.1,3.7,3.7v9.6c0,2.1-1.1,3.2-3.7,3.2H1109.5L1109.5,601.6z"/>
	<path class="st0" d="M1300.9,585.2h11.7c2.1,0,3.7,1.1,3.7,3.7v41.9l26-41.4c1.6-2.7,2.1-4.2,5.3-4.2h11.1c3.2,0,3.7,1.6,3.7,3.7
		v73.2c0,2.7-1.1,3.2-3.7,3.2h-11.7c-2.1,0-3.7-0.5-3.7-3.2v-42.5l-26,41.4c-1.6,2.7-2.1,4.3-5.3,4.3h-11.1c-2.6,0-3.2-1.1-3.2-3.2
		v-73.2C1297.7,586.2,1298.8,585.2,1300.9,585.2L1300.9,585.2z M1350.2,559.2h-5.8c-1.1,0-1.6,1.1-2.1,2.1
		c-1.6,3.7-6.4,5.8-10.6,5.8c-4.2,0-9.6-1.6-11.1-5.8c0-1.1-0.5-2.1-1.6-2.1h-6.4c-1.6,0-1.1,2.1-1.1,2.7
		c1.6,10.1,10.1,14.9,20.2,14.9c10.1,0,18.6-4.8,19.6-14.9C1351.3,561.3,1351.8,559.2,1350.2,559.2L1350.2,559.2z"/>
	<path class="st0" d="M1581.9,588.9l-27.6,29.7l26.5,43c0.5,1.6,0,3.7-2.1,3.7h-14.9c-2.7,0-4.2-1.1-5.8-3.7
		c0,0-11.1-18.6-17.5-29.2l-7.4,8v21.8c0,2.7-1.6,3.2-3.7,3.2h-12.2c-2.1,0-3.2-0.5-3.2-3.2v-73.2c0-2.7,1.1-3.7,3.2-3.7h12.2
		c2.1,0,3.7,1.1,3.7,3.7v27.1l24.9-27.6c2.7-2.7,3.2-3.2,6.4-3.2h16.5C1583,585.2,1583,587.8,1581.9,588.9L1581.9,588.9z"/>
	<path class="st0" d="M1731.6,588.9l-27.6,29.7l26.5,43c0.5,1.6,0,3.7-2.1,3.7h-14.9c-2.7,0-4.2-1.1-5.8-3.7
		c0,0-11.1-18.6-17.5-29.2l-7.4,8v21.8c0,2.7-1.6,3.2-3.7,3.2h-12.2c-2.1,0-3.2-0.5-3.2-3.2v-73.2c0-2.7,1.1-3.7,3.2-3.7h12.2
		c2.1,0,3.7,1.1,3.7,3.7v27.1l24.9-27.6c2.6-2.7,3.2-3.2,6.4-3.2h16.5C1732.7,585.2,1732.7,587.8,1731.6,588.9L1731.6,588.9z"/>
	<path class="st0" d="M960.2,620.2c0-1.6,1.6-2.7,3.7-2.7h5.3c7.4,0,11.1-2.7,11.1-8c0-7.4-5.8-9.5-11.1-9.5
		c-3.7,0-9.5,1.1-11.1,6.9c-0.5,2.1-1.1,2.7-3.2,2.7h-10.6c-2.7,0-3.2-0.5-3.2-3.7c0-13.3,12.2-22.3,27.6-22.3
		c16.5,0,29.7,8.5,29.7,26c0,7.4-4.8,13.8-9.5,14.9c6.9,2.7,12.2,9,12.2,17c0,19.1-14.9,25.5-31.3,26c-15.4,0-29.2-10.1-29.2-23.3
		c0-3.2,1.1-3.7,3.7-3.7h10.6c2.1,0,2.6,1.1,3.2,2.6c1.6,5.8,8.5,7.4,12.7,7.4c4.8,0,11.1-2.6,11.1-9c0-6.4-4.2-9.5-12.7-9.5h-5.8
		c-2.6,0-3.2-1.1-3.2-3.2V620.2L960.2,620.2z"/>
	<path class="st0" d="M1961.1,652.7v7.2v-9.4c0-2.6-1.6-3.2-3.7-3.2h-12.2c-2.1,0-3.2,0.5-3.2,3.2v9.4v-7.2v9.4
		c0,2.6,1.1,3.2,3.2,3.2h12.2c2.1,0,3.7-0.5,3.7-3.2V652.7L1961.1,652.7z M1961.1,611.2v-27.9v-18.6c0-2.6-1.6-3.2-3.7-3.2h-12.2
		c-2.1,0-3.2,0.5-3.2,3.2v18.6v27.9v18.6c0,2.6,1.1,3.2,3.2,3.2h12.2c2.1,0,3.7-0.5,3.7-3.2V611.2L1961.1,611.2z"/>
	<polygon class="st1" points="0,459.4 940.3,459.4 219.9,619.3 0,459.4 	"/>
</g>
</svg>
